<svg width="36" height="32" viewBox="0 0 36 32" fill="none" xmlns="http://www.w3.org/2000/svg">
<path d="M33.6539 2.64941C24.518 5.57066 19.3695 1.30458 11.7536 0.889457C11.4225 0.872732 11.1399 1.12511 11.1218 1.45593C11.1132 1.61483 11.168 1.77064 11.2743 1.88912C11.3805 2.0076 11.5294 2.07904 11.6883 2.08773C19.0358 2.48816 24.5409 6.82316 34.0194 3.79241C34.4057 3.66903 34.8 3.95793 34.8 4.36413V23.904C34.8 24.4209 34.4683 24.8791 33.9745 25.0443C21.2546 29.3014 15.845 19.5262 2.03115 25.1518C1.63455 25.3132 1.2 25.0278 1.2 24.5982V5.49731C1.2 4.76688 1.6377 4.11333 2.31518 3.83231C4.1949 3.05261 5.9673 2.54343 7.73355 2.27583C7.81146 2.26404 7.88628 2.23701 7.95374 2.19629C8.0212 2.15558 8.07998 2.10198 8.12673 2.03854C8.17348 1.97511 8.20727 1.90309 8.22618 1.8266C8.24509 1.75011 8.24875 1.67064 8.23695 1.59273C8.1873 1.26506 7.8807 1.03961 7.55385 1.08941C5.69018 1.37186 3.8262 1.90646 1.85535 2.72388C0.728325 3.19143 0 4.28006 0 5.49731V24.5982C0 25.877 1.29803 26.746 2.48378 26.2632C15.8426 20.823 21.1829 30.5909 34.3553 26.1822C35.3391 25.8531 36 24.9375 36 23.904V4.36413C36 3.15168 34.8212 2.27606 33.6539 2.64941ZM33.9743 28.7944C33.9258 28.8106 33.8774 28.8267 33.8291 28.8425C33.6779 28.892 33.5526 28.9996 33.4807 29.1416C33.4088 29.2836 33.3962 29.4483 33.4458 29.5995C33.4954 29.7508 33.603 29.8761 33.7449 29.948C33.8869 30.0199 34.0516 30.0324 34.2029 29.9829C34.2536 29.9662 34.3045 29.9493 34.3556 29.9322C34.5064 29.8817 34.631 29.7732 34.702 29.6308C34.7729 29.4884 34.7844 29.3236 34.7339 29.1727C34.6285 28.8585 34.2883 28.689 33.9743 28.7944Z" fill="url(#paint0_linear_317_4828)"/>
<path d="M30.8529 29.6004C20.3363 31.4889 14.6372 23.7673 2.02995 28.9015C1.88258 28.9615 1.76508 29.0776 1.70331 29.2243C1.64153 29.3709 1.64054 29.5361 1.70055 29.6835C1.73025 29.7565 1.77404 29.8229 1.82942 29.879C1.8848 29.935 1.95069 29.9796 2.02331 30.0102C2.09593 30.0408 2.17387 30.0568 2.25268 30.0572C2.33148 30.0577 2.4096 30.0426 2.48257 30.0129C14.7338 25.0237 20.0674 32.7564 31.065 30.7815C31.2216 30.7533 31.3607 30.6642 31.4515 30.5335C31.5424 30.4029 31.5776 30.2415 31.5495 30.0849C31.5356 30.0073 31.5066 29.9332 31.4641 29.8668C31.4216 29.8005 31.3664 29.7432 31.3017 29.6982C31.237 29.6532 31.164 29.6214 31.087 29.6046C31.01 29.5878 30.9305 29.5864 30.8529 29.6004ZM27.9447 22.8562C27.7867 22.8691 27.6402 22.944 27.5372 23.0645C27.4342 23.1851 27.3832 23.3415 27.3951 23.4996C27.4071 23.6577 27.4812 23.8046 27.6011 23.9082C27.7211 24.0119 27.8772 24.0639 28.0354 24.0528C29.4755 23.9436 30.9107 23.6681 32.4227 23.2102C32.5459 23.1729 32.6539 23.0969 32.7306 22.9935C32.8074 22.8901 32.8488 22.7647 32.8488 22.6359V6.83464C32.8488 6.43279 32.4605 6.14382 32.075 6.26037C30.3458 6.78394 28.7128 7.05867 27.0826 7.10007C27.0038 7.10207 26.9262 7.11957 26.8542 7.15157C26.7822 7.18356 26.7172 7.22943 26.6629 7.28654C26.6086 7.34366 26.5661 7.4109 26.5378 7.48444C26.5096 7.55798 26.496 7.63638 26.498 7.71515C26.5064 8.04642 26.7809 8.30614 27.113 8.29969C28.6058 8.26174 30.097 8.04169 31.6489 7.62904V22.1862C30.3773 22.5444 29.1614 22.764 27.9447 22.8562ZM24.993 24.0289C25.328 24.0589 25.6148 23.8104 25.6439 23.4844C25.6711 23.1786 25.4636 22.866 25.0735 22.8312C24.9951 22.8242 24.9159 22.8327 24.8407 22.8563C24.7655 22.8799 24.6957 22.918 24.6353 22.9686C24.5748 23.0192 24.5249 23.0812 24.4885 23.151C24.452 23.2209 24.4296 23.2972 24.4227 23.3757C24.3955 23.6815 24.603 23.994 24.993 24.0289ZM12.4117 5.44557C12.4902 5.45264 12.5694 5.44417 12.6446 5.42064C12.7198 5.3971 12.7896 5.35898 12.8501 5.30843C12.9105 5.25789 12.9604 5.19592 12.9969 5.12607C13.0334 5.05623 13.0558 4.97987 13.0627 4.90137C13.0769 4.74288 13.0275 4.58525 12.9255 4.46317C12.8234 4.34108 12.677 4.26454 12.5185 4.25037C9.56542 3.98652 6.71265 4.40967 3.54082 5.58222C3.42579 5.62472 3.32654 5.70145 3.25645 5.80207C3.18636 5.9027 3.14879 6.02239 3.1488 6.14502V21.9464C3.1488 22.3638 3.5652 22.6538 3.95685 22.5092C6.2226 21.6716 8.3334 21.2382 10.4101 21.1842C10.5691 21.18 10.7201 21.1129 10.8296 20.9975C10.9392 20.8821 10.9984 20.7279 10.9942 20.5688C10.9857 20.2375 10.7067 19.977 10.3789 19.9846C8.41942 20.0355 6.43905 20.401 4.3488 21.0992V6.56629C7.19115 5.56534 9.7638 5.20902 12.4117 5.44557Z" fill="url(#paint1_linear_317_4828)"/>
<path d="M9.5689 12.1347C8.8339 12.173 8.10147 12.2506 7.37478 12.3672C7.21963 12.3946 7.08146 12.4819 6.9901 12.6102C6.89874 12.7386 6.86153 12.8977 6.88649 13.0533C6.91145 13.2088 6.99658 13.3483 7.12351 13.4416C7.25044 13.535 7.40898 13.5746 7.5649 13.5521C8.24904 13.4422 8.93858 13.3691 9.63055 13.3332C9.78946 13.325 9.93861 13.254 10.0452 13.1359C10.1518 13.0177 10.2071 12.8621 10.1989 12.7032C10.182 12.3722 9.89883 12.117 9.5689 12.1347ZM25.7946 15.4548C25.7906 15.5335 25.8022 15.6122 25.8286 15.6865C25.855 15.7607 25.8959 15.829 25.9487 15.8874C26.0015 15.9459 26.0654 15.9933 26.1366 16.0271C26.2077 16.0609 26.2849 16.0803 26.3636 16.0843C27.1099 16.122 27.8355 16.1186 28.5231 16.0813C28.6018 16.0771 28.6789 16.0573 28.7499 16.0233C28.821 15.9892 28.8847 15.9415 28.9373 15.8829C28.9899 15.8242 29.0305 15.7558 29.0566 15.6815C29.0828 15.6072 29.0941 15.5284 29.0898 15.4497C29.072 15.1189 28.7878 14.8657 28.4583 14.8831C27.7807 14.9193 27.1017 14.9203 26.4241 14.8859C26.3454 14.8819 26.2667 14.8935 26.1925 14.9199C26.1182 14.9463 26.05 14.9871 25.9915 15.04C25.933 15.0928 25.8856 15.1566 25.8518 15.2278C25.818 15.299 25.7985 15.3761 25.7946 15.4548ZM19.0639 15.3674C21.0076 15.3674 22.5889 13.7861 22.5889 11.8424C22.5889 9.89868 21.0076 8.31738 19.0639 8.31738H15.4506C15.2915 8.31738 15.1389 8.3806 15.0264 8.49312C14.9138 8.60564 14.8506 8.75825 14.8506 8.91738V17.1674H14.1006C13.9415 17.1674 13.7889 17.2306 13.6764 17.3431C13.5638 17.4556 13.5006 17.6083 13.5006 17.7674C13.5006 17.9265 13.5638 18.0791 13.6764 18.1916C13.7889 18.3042 13.9415 18.3674 14.1006 18.3674H14.8506V20.0174C14.8506 20.1765 14.9138 20.3291 15.0264 20.4416C15.1389 20.5542 15.2915 20.6174 15.4506 20.6174C15.6098 20.6174 15.7624 20.5542 15.8749 20.4416C15.9874 20.3291 16.0506 20.1765 16.0506 20.0174V18.3674H18.7506C18.9098 18.3674 19.0624 18.3042 19.1749 18.1916C19.2874 18.0791 19.3506 17.9265 19.3506 17.7674C19.3506 17.6083 19.2874 17.4556 19.1749 17.3431C19.0624 17.2306 18.9098 17.1674 18.7506 17.1674H16.0506V15.3674H19.0639ZM16.0506 9.51738H19.0639C20.346 9.51738 21.3889 10.5604 21.3889 11.8424C21.3889 13.1244 20.346 14.1674 19.0639 14.1674H16.0506V9.51738Z" fill="url(#paint2_linear_317_4828)"/>
<defs>
<linearGradient id="paint0_linear_317_4828" x1="0" y1="15.4507" x2="36" y2="15.4507" gradientUnits="userSpaceOnUse">
<stop stop-color="#E52D27"/>
<stop offset="1" stop-color="#B31217"/>
</linearGradient>
<linearGradient id="paint1_linear_317_4828" x1="1.65625" y1="17.6434" x2="32.8488" y2="17.6434" gradientUnits="userSpaceOnUse">
<stop stop-color="#E52D27"/>
<stop offset="1" stop-color="#B31217"/>
</linearGradient>
<linearGradient id="paint2_linear_317_4828" x1="6.87891" y1="14.4674" x2="29.0907" y2="14.4674" gradientUnits="userSpaceOnUse">
<stop stop-color="#E52D27"/>
<stop offset="1" stop-color="#B31217"/>
</linearGradient>
</defs>
</svg>
