<svg width="22" height="36" viewBox="0 0 22 36" fill="none" xmlns="http://www.w3.org/2000/svg">
<path d="M21.4515 35.3086L19.5602 29.2693C19.5493 29.2314 19.5476 29.1915 19.5552 29.1528L19.9952 26.9345C20.0065 26.8779 20.0168 26.8212 20.0271 26.7644L20.0448 26.668C20.0575 26.6001 20.0568 26.5303 20.0426 26.4627C20.0284 26.395 20.001 26.3308 19.962 26.2738C19.923 26.2167 19.8731 26.1679 19.8152 26.1301C19.7573 26.0923 19.6925 26.0663 19.6246 26.0536C19.4874 26.0279 19.3456 26.0577 19.2304 26.1365C19.1152 26.2153 19.036 26.3366 19.0102 26.4738L18.9913 26.5766C18.982 26.6277 18.9728 26.6788 18.9627 26.7297L18.5227 28.948C18.4824 29.1522 18.4915 29.3631 18.5494 29.563L20.4407 35.6023C20.4725 35.7118 20.5389 35.8079 20.63 35.8764C20.7211 35.9449 20.832 35.9819 20.9459 35.982C21.0276 35.9821 21.1082 35.9631 21.1813 35.9266C21.2544 35.8901 21.318 35.837 21.367 35.7717C21.4161 35.7064 21.4493 35.6305 21.4639 35.5501C21.4786 35.4698 21.4743 35.3871 21.4515 35.3086ZM19.4534 17.3153V21.7331C19.4534 22.5763 19.4108 23.4317 19.3268 24.2756C19.32 24.3444 19.3267 24.4138 19.3467 24.48C19.3667 24.5462 19.3996 24.6078 19.4434 24.6612C19.4872 24.7147 19.5411 24.759 19.602 24.7917C19.663 24.8243 19.7297 24.8447 19.7985 24.8515C20.0879 24.8806 20.3457 24.6691 20.3744 24.3799C20.4619 23.5003 20.5058 22.617 20.5061 21.7332V17.3153C20.5061 16.2542 19.6428 15.3909 18.5816 15.3909C17.586 15.3909 16.7434 16.1683 16.6633 17.1607L16.3787 20.6904C14.3459 22.2515 12.9119 24.4829 12.3375 26.9823L11.9578 28.634C11.9401 28.7111 11.94 28.7913 11.9575 28.8686C11.9751 28.9458 12.0098 29.0181 12.0592 29.08C12.1085 29.1419 12.1712 29.1919 12.2426 29.2263C12.314 29.2606 12.3922 29.2784 12.4714 29.2783C12.5904 29.2782 12.7059 29.2377 12.799 29.1635C12.892 29.0893 12.9572 28.9857 12.9839 28.8697L13.3635 27.218C13.8886 24.9331 15.2076 22.8959 17.0773 21.4815L17.202 21.3872C17.2612 21.3425 17.3102 21.2857 17.3459 21.2206C17.3816 21.1556 17.4031 21.0837 17.4091 21.0097L17.7127 17.2452C17.749 16.7956 18.1306 16.4435 18.5816 16.4435C19.0623 16.4436 19.4534 16.8347 19.4534 17.3153ZM11.8591 32.8923C11.8327 32.7849 11.7829 32.6848 11.7132 32.599C11.6436 32.5132 11.5558 32.4438 11.4562 32.3959L11.2082 32.2762C9.80156 31.5971 8.72153 30.419 8.16702 28.9588L7.96862 28.4365H10.7358C10.8754 28.4365 11.0092 28.381 11.108 28.2823C11.2067 28.1836 11.2621 28.0497 11.2621 27.9101C11.2621 27.7705 11.2067 27.6366 11.108 27.5379C11.0092 27.4392 10.8754 27.3837 10.7358 27.3837H3.42495C2.40766 27.3837 1.58008 26.5562 1.58008 25.5389V8.69016C1.58008 8.55056 1.52462 8.41668 1.42591 8.31797C1.32719 8.21925 1.19331 8.1638 1.05371 8.1638C0.914109 8.1638 0.780226 8.21925 0.681513 8.31797C0.5828 8.41668 0.527344 8.55056 0.527344 8.69016V25.5389C0.527344 27.1366 1.82719 28.4365 3.42495 28.4365H6.84254L7.18286 29.3326C7.83337 31.0455 9.10037 32.4276 10.7504 33.2242L10.871 33.2824L11.4433 35.5997C11.4715 35.7138 11.537 35.8153 11.6296 35.8878C11.7221 35.9604 11.8363 35.9999 11.9538 36C12.0338 36.0001 12.1126 35.9819 12.1845 35.947C12.2564 35.912 12.3193 35.8612 12.3686 35.7983C12.4179 35.7353 12.4522 35.662 12.469 35.5839C12.4857 35.5057 12.4844 35.4248 12.4653 35.3472L11.8591 32.8923ZM1.05371 6.9733C1.19331 6.9733 1.32719 6.91784 1.42591 6.81913C1.52462 6.72042 1.58008 6.58653 1.58008 6.44693V2.89761C1.58008 1.88032 2.40766 1.05273 3.42495 1.05273H4.9757V1.42828C4.9757 2.58593 5.91747 3.52778 7.0752 3.52778H11.1329C12.2906 3.52778 13.2324 2.586 13.2324 1.42828V1.05273H14.7832C15.8005 1.05273 16.628 1.88032 16.628 2.89761V14.2182C16.628 14.3578 16.6835 14.4917 16.7822 14.5904C16.8809 14.6891 17.0148 14.7446 17.1544 14.7446C17.294 14.7446 17.4279 14.6891 17.5266 14.5904C17.6253 14.4917 17.6808 14.3578 17.6808 14.2182V2.89761C17.6807 1.29984 16.3808 0 14.7831 0H3.42495C1.82719 0 0.527344 1.29984 0.527344 2.89761V6.44693C0.527344 6.58653 0.5828 6.72042 0.681513 6.81913C0.780226 6.91784 0.914109 6.9733 1.05371 6.9733ZM12.1796 1.42828C12.1796 2.00545 11.7101 2.47504 11.1328 2.47504H7.07513C6.49795 2.47504 6.02836 2.00552 6.02836 1.42828V1.05273H12.1795V1.42828H12.1796Z" fill="white" fill-opacity="0.5"/>
<path d="M11.7404 20.8075C11.6008 20.8075 11.4669 20.863 11.3682 20.9617C11.2694 21.0604 11.214 21.1943 11.214 21.3339C11.214 21.4735 11.2694 21.6074 11.3682 21.7061C11.4669 21.8048 11.6008 21.8603 11.7404 21.8603H13.1396C13.6887 21.8603 14.1354 21.4136 14.1354 20.8645V18.8058C14.1354 18.2568 13.6887 17.8101 13.1396 17.8101H5.06996C4.52093 17.8101 4.07422 18.2568 4.07422 18.8058V20.8645C4.07422 21.4136 4.52093 21.8603 5.06996 21.8603H9.49726C9.63686 21.8603 9.77075 21.8048 9.86946 21.7061C9.96817 21.6074 10.0236 21.4735 10.0236 21.3339C10.0236 21.1943 9.96817 21.0604 9.86946 20.9617C9.77075 20.863 9.63686 20.8075 9.49726 20.8075H5.12695V18.8628H13.0827V20.8075H11.7404ZM14.2947 7.00776C14.1976 6.9075 14.0646 6.84993 13.925 6.84772C13.7854 6.84551 13.6507 6.89884 13.5504 6.99597L11.4816 9.00009C11.2977 8.89289 11.0886 8.83639 10.8758 8.83635H7.33369C6.66506 8.83635 6.12108 9.38034 6.12108 10.049V13.3717C6.12108 14.0403 6.66506 14.5842 7.33369 14.5842H10.8758C11.5444 14.5842 12.0884 14.0403 12.0884 13.3717V10.049C12.0884 9.99471 12.0835 9.94172 12.0767 9.88937L14.2828 7.75211C14.3325 7.70402 14.3722 7.64661 14.3997 7.58318C14.4271 7.51974 14.4418 7.45151 14.4429 7.38239C14.444 7.31327 14.4315 7.24461 14.4061 7.18033C14.3807 7.11605 14.3428 7.05741 14.2947 7.00776ZM11.0357 13.3715C11.0357 13.4139 11.0188 13.4545 10.9888 13.4845C10.9589 13.5144 10.9182 13.5313 10.8759 13.5313H7.33376C7.29138 13.5313 7.25075 13.5144 7.22078 13.4845C7.1908 13.4545 7.17394 13.4139 7.17388 13.3715V10.0488C7.17392 10.0064 7.19078 9.96579 7.22075 9.93581C7.25073 9.90584 7.29137 9.88898 7.33376 9.88895H10.564L8.93742 11.4647L8.61563 11.1844C8.56351 11.139 8.50295 11.1043 8.43741 11.0823C8.37188 11.0603 8.30265 11.0514 8.23369 11.0562C8.16473 11.0609 8.09738 11.0792 8.03548 11.11C7.97359 11.1408 7.91837 11.1835 7.87297 11.2356C7.82757 11.2877 7.79288 11.3483 7.77088 11.4138C7.74889 11.4794 7.74002 11.5486 7.74477 11.6175C7.74953 11.6865 7.76782 11.7539 7.79861 11.8158C7.8294 11.8776 7.87207 11.9329 7.9242 11.9783L8.61065 12.5761C8.70641 12.6597 8.82922 12.7057 8.9563 12.7056C9.09304 12.7057 9.22445 12.6525 9.32258 12.5573L11.0357 10.8977V13.3715Z" fill="white" fill-opacity="0.5"/>
</svg>
