<svg width="24" height="24" viewBox="0 0 24 24" fill="none" xmlns="http://www.w3.org/2000/svg">
<path d="M15.0166 17.9782C15.7995 17.1636 16.6771 16.3952 17.652 15.68C19.9368 14.0073 21.2468 11.4812 21.2468 8.74669C21.2469 3.92487 17.0993 0 12 0C6.90317 0 2.75565 3.92487 2.75565 8.74669C2.75565 11.4812 4.06569 14.0073 6.3505 15.68C7.32534 16.3952 8.20292 17.1636 8.98333 17.9782C4.67462 18.2473 0 19.154 0 20.9431C0 22.9503 6.0384 24 12.0026 24C17.9642 24 24 22.9503 24 20.9431C23.9999 19.154 19.3279 18.2473 15.0166 17.9782ZM6.81873 15.1055C4.72321 13.5709 3.52324 11.2533 3.52324 8.74669C3.52324 4.32487 7.32534 0.727273 12 0.727273C16.6746 0.727273 20.4793 4.32487 20.4793 8.74669C20.4793 11.2534 19.2767 13.5709 17.1812 15.1055C15.1726 16.577 13.3663 18.434 12.0946 20.526C12.0946 20.5284 12.0921 20.5284 12.0921 20.5284C12.0537 20.589 11.9437 20.589 11.9027 20.5236C10.6337 18.4315 8.82214 16.5721 6.81873 15.1055Z" fill="white"/>
<path d="M11.9974 4.77087C9.67675 4.77087 7.79102 6.55509 7.79102 8.75145C7.79102 10.9502 9.67675 12.7369 11.9974 12.7369C14.3181 12.7369 16.2038 10.9502 16.2038 8.75145C16.2038 6.55509 14.3181 4.77087 11.9974 4.77087ZM11.9974 12.0096C10.1015 12.0096 8.55861 10.5478 8.55861 8.75145C8.55861 6.95749 10.1015 5.49815 11.9974 5.49815C13.8934 5.49815 15.4362 6.95756 15.4362 8.75145C15.4362 10.5478 13.8934 12.0096 11.9974 12.0096Z" fill="white"/>
</svg>
