<svg width="251" height="38" viewBox="0 0 251 38" fill="none" xmlns="http://www.w3.org/2000/svg">
<g clip-path="url(#clip0_2082_5977)">
<path d="M57.9409 10.6415H75.2531C77.2169 10.6415 78.7876 11.4941 79.9651 13.1993C80.287 13.7921 80.4653 14.4522 80.4855 15.1264V15.3724C80.4855 16.6866 79.8463 17.843 78.5679 18.8418C79.8484 19.9247 80.4876 20.9991 80.4855 22.0652V22.8063C80.4855 24.131 79.7338 25.3127 78.2304 26.3514C77.2169 26.8434 76.481 27.0894 76.0226 27.0894C76.0226 27.143 75.9627 27.1683 75.8397 27.1683H57.9409C57.8905 27.1683 57.8652 27.143 57.8652 27.0894V10.7298C57.8757 10.6709 57.901 10.6415 57.9409 10.6415ZM63.1197 14.5839V17.126H73.8117C74.0955 17.1453 74.378 17.0734 74.618 16.9207C74.858 16.7681 75.0429 16.5428 75.1458 16.2776C75.1739 16.1306 75.1939 15.9821 75.2058 15.8329C75.2058 15.2242 74.8399 14.811 74.1019 14.5713L63.1197 14.5839ZM63.1197 20.7342V23.292H73.8117C74.097 23.3104 74.3806 23.2366 74.6208 23.0816C74.861 22.9266 75.045 22.6985 75.1458 22.431C75.1868 22.1819 75.2058 22.0399 75.2058 21.9989C75.2061 21.7478 75.1299 21.5025 74.9873 21.2957C74.8448 21.0889 74.6426 20.9305 74.4078 20.8414C74.2184 20.7659 74.0156 20.7294 73.8117 20.7342H63.1197Z" fill="white"/>
<path d="M85.8257 10.6415H103.173C103.951 10.6412 104.72 10.8038 105.432 11.1189C106.144 11.4339 106.781 11.8944 107.304 12.4708C107.983 13.2075 108.366 14.1689 108.38 15.1706V18.1605C108.38 19.7123 107.53 20.997 105.831 22.0147L105.172 22.3049L108.38 27.162L108.304 27.1935H102.072C101.92 27.0169 100.903 25.5009 99.0187 22.6455H91.0234V27.1147C91.025 27.1254 91.0241 27.1363 91.0207 27.1466C91.0173 27.1569 91.0115 27.1663 91.0039 27.1739C90.9962 27.1816 90.9868 27.1874 90.9766 27.1908C90.9663 27.1942 90.9553 27.1951 90.9446 27.1935H85.8257C85.7752 27.1935 85.75 27.1683 85.75 27.1147V10.7298C85.7647 10.6709 85.7899 10.6415 85.8257 10.6415ZM91.0234 14.5839V18.7156H101.012C102.078 18.7156 102.753 18.2457 103.04 17.3121C103.08 17.1042 103.1 16.893 103.1 16.6813C103.1 15.6805 102.686 15.0171 101.857 14.6912C101.603 14.6192 101.34 14.5831 101.075 14.5839H91.0234Z" fill="white"/>
<path d="M123.359 10.6415H128.591C128.692 10.7319 129.772 12.5349 131.83 16.0505C135.983 23.1322 138.147 26.8319 138.321 27.1494V27.1809H132.288C132.143 27.0358 130.275 23.8818 126.686 17.719C126.245 16.9778 126.014 16.6088 125.995 16.6088C121.952 23.5034 119.875 27.0285 119.763 27.184H113.686V27.1052C119.909 16.4952 123.134 11.0073 123.359 10.6415Z" fill="white"/>
<path d="M143.759 10.6415H161.207C162.763 10.6415 164.175 11.3196 165.443 12.6758C165.973 13.3676 166.273 14.208 166.301 15.0791V27.102C166.301 27.1557 166.275 27.1809 166.225 27.1809H161.103C161.092 27.1825 161.081 27.1816 161.071 27.1782C161.061 27.1748 161.051 27.169 161.044 27.1613C161.036 27.1537 161.03 27.1443 161.027 27.134C161.023 27.1237 161.023 27.1128 161.024 27.102V17.5424C161.024 16.0852 160.401 15.139 159.154 14.7038C158.888 14.6357 158.615 14.5997 158.34 14.5966H148.948V27.1273C148.948 27.1809 148.922 27.2061 148.872 27.2061H143.759C143.709 27.2061 143.684 27.1809 143.684 27.1273V10.7298C143.694 10.6709 143.719 10.6415 143.759 10.6415Z" fill="#EC1C24"/>
<path d="M171.685 10.6415H189.133C190.689 10.6415 192.101 11.3196 193.369 12.6758C193.901 13.3667 194.202 14.2075 194.23 15.0791V27.102C194.23 27.1557 194.204 27.1809 194.154 27.1809H189.026C188.975 27.1809 188.95 27.1557 188.95 27.102V17.5424C188.95 16.0852 188.325 15.139 187.076 14.7038C186.81 14.6357 186.537 14.5997 186.263 14.5966H176.873V27.1273C176.875 27.138 176.874 27.1489 176.871 27.1592C176.867 27.1695 176.861 27.1789 176.854 27.1866C176.846 27.1942 176.837 27.2 176.826 27.2034C176.816 27.2068 176.805 27.2077 176.795 27.2061H171.685C171.635 27.2061 171.609 27.1809 171.609 27.1273V10.7298C171.611 10.6709 171.637 10.6415 171.685 10.6415Z" fill="#EC1C24"/>
<path d="M204.645 10.6415H216.877C217.741 10.6204 218.599 10.8033 219.38 11.1753C220.16 11.5474 220.843 12.0982 221.371 12.783C221.891 13.477 222.176 14.319 222.185 15.1863V22.677C222.185 24.3591 221.249 25.6796 219.378 26.6384C218.595 27.0066 217.741 27.1962 216.877 27.1935H204.797C203.933 27.2021 203.08 27.0086 202.304 26.6286C201.529 26.2485 200.853 25.6924 200.331 25.0046C199.843 24.3424 199.575 23.5437 199.564 22.7212V15.1706C199.564 13.4107 200.598 12.0439 202.665 11.0704C203.299 10.8254 203.967 10.6807 204.645 10.6415ZM204.828 17.2648V20.5323C204.828 21.8696 205.519 22.759 206.901 23.2006C207.107 23.2531 207.319 23.2785 207.531 23.2763H214.284C215.489 23.2763 216.33 22.6339 216.807 21.3492C216.889 21.112 216.926 20.8619 216.918 20.6112V17.4572C216.918 16.0474 216.265 15.1075 214.968 14.6186C214.636 14.5809 214.303 14.5609 213.969 14.5587H207.516C206.275 14.5587 205.415 15.1958 204.936 16.47C204.861 16.7337 204.825 17.0066 204.828 17.2806V17.2648Z" fill="white"/>
<path d="M227.539 10.6415H244.885C245.662 10.6401 246.431 10.8009 247.142 11.1138C247.853 11.4266 248.49 11.8845 249.014 12.4582C249.693 13.1949 250.076 14.1563 250.089 15.158V18.1479C250.089 19.6997 249.24 20.9844 247.541 22.0021L246.882 22.2923L250.089 27.1494L250.014 27.1809H243.775C243.624 27.0043 242.606 25.4883 240.722 22.6329H232.727V27.1021C232.728 27.1128 232.728 27.1237 232.724 27.134C232.721 27.1443 232.715 27.1537 232.707 27.1613C232.7 27.169 232.69 27.1748 232.68 27.1782C232.67 27.1816 232.659 27.1825 232.648 27.1809H227.539C227.488 27.1809 227.463 27.1557 227.463 27.1021V10.7298C227.473 10.6709 227.499 10.6415 227.539 10.6415ZM232.727 14.5839V18.7156H242.715C243.782 18.7156 244.456 18.2457 244.743 17.3121C244.783 17.1042 244.803 16.893 244.803 16.6813C244.803 15.6805 244.389 15.0171 243.561 14.6912C243.306 14.6192 243.043 14.5831 242.779 14.5839H232.727Z" fill="white"/>
<path d="M57.8807 30.3223H63.0342C63.0393 30.3223 63.0441 30.3243 63.0476 30.3278C63.0512 30.3314 63.0532 30.3362 63.0532 30.3412V31.259C63.0538 31.2616 63.0537 31.2643 63.053 31.2669C63.0522 31.2695 63.0509 31.2718 63.049 31.2737C63.0471 31.2756 63.0447 31.277 63.0421 31.2777C63.0396 31.2785 63.0369 31.2785 63.0342 31.2779H61.0662V34.3247C61.0668 34.3273 61.0667 34.33 61.066 34.3326C61.0652 34.3351 61.0639 34.3375 61.062 34.3394C61.0601 34.3413 61.0577 34.3426 61.0551 34.3434C61.0526 34.3441 61.0499 34.3442 61.0472 34.3436H59.874C59.8714 34.3442 59.8686 34.3441 59.8661 34.3434C59.8635 34.3426 59.8611 34.3413 59.8593 34.3394C59.8574 34.3375 59.856 34.3351 59.8552 34.3326C59.8545 34.33 59.8544 34.3273 59.855 34.3247V31.2779H57.8807C57.8781 31.2785 57.8753 31.2785 57.8728 31.2777C57.8702 31.277 57.8678 31.2756 57.8659 31.2737C57.8641 31.2718 57.8627 31.2695 57.8619 31.2669C57.8612 31.2643 57.8611 31.2616 57.8617 31.259V30.3412C57.8617 30.3412 57.8712 30.3223 57.8807 30.3223Z" fill="white"/>
<path d="M69.4261 30.3223H70.5994C70.5994 30.3223 70.6152 30.3223 70.6152 30.3412V31.8961H73.3875V30.3412C73.3875 30.3412 73.3875 30.3223 73.4064 30.3223H74.5829C74.5873 30.323 74.5914 30.3253 74.5943 30.3288C74.5971 30.3323 74.5987 30.3367 74.5986 30.3412V34.3247C74.5986 34.3247 74.5986 34.3436 74.5829 34.3436H73.4064C73.4038 34.3442 73.4011 34.3441 73.3985 34.3434C73.396 34.3426 73.3936 34.3413 73.3917 34.3394C73.3898 34.3375 73.3884 34.3351 73.3877 34.3326C73.387 34.33 73.3869 34.3273 73.3875 34.3247V32.7697H70.6152V34.3247C70.6152 34.3247 70.6152 34.3436 70.5994 34.3436H69.4261C69.4261 34.3436 69.4104 34.3436 69.4104 34.3247V30.3412C69.4104 30.3412 69.4072 30.3223 69.4261 30.3223Z" fill="white"/>
<path d="M80.9607 30.3223H86.1143C86.1193 30.3223 86.1242 30.3243 86.1277 30.3278C86.1312 30.3314 86.1332 30.3362 86.1332 30.3412V31.259C86.1338 31.2616 86.1338 31.2643 86.133 31.2669C86.1323 31.2695 86.1309 31.2718 86.129 31.2737C86.1271 31.2756 86.1248 31.277 86.1222 31.2777C86.1196 31.2785 86.1169 31.2785 86.1143 31.2779H80.9607C80.9581 31.2785 80.9554 31.2785 80.9528 31.2777C80.9503 31.277 80.9479 31.2756 80.946 31.2737C80.9441 31.2718 80.9428 31.2695 80.942 31.2669C80.9413 31.2643 80.9412 31.2616 80.9418 31.259V30.3412C80.9418 30.3412 80.9513 30.3223 80.9607 30.3223ZM80.9607 31.8993H86.1143C86.1143 31.8993 86.1332 31.8992 86.1332 31.9182V32.754C86.1338 32.7566 86.1338 32.7593 86.133 32.7619C86.1323 32.7645 86.1309 32.7668 86.129 32.7687C86.1271 32.7706 86.1248 32.772 86.1222 32.7727C86.1196 32.7734 86.1169 32.7735 86.1143 32.7729H80.9607C80.9581 32.7735 80.9554 32.7734 80.9528 32.7727C80.9503 32.772 80.9479 32.7706 80.946 32.7687C80.9441 32.7668 80.9428 32.7645 80.942 32.7619C80.9413 32.7593 80.9412 32.7566 80.9418 32.754V31.9182C80.9418 31.9182 80.9513 31.8961 80.9607 31.8961V31.8993ZM80.9607 33.3942H86.1143C86.1143 33.3942 86.1332 33.3942 86.1332 33.41V34.3278C86.1338 34.3304 86.1338 34.3331 86.133 34.3357C86.1323 34.3383 86.1309 34.3406 86.129 34.3425C86.1271 34.3444 86.1248 34.3458 86.1222 34.3465C86.1196 34.3473 86.1169 34.3473 86.1143 34.3467H80.9607C80.9581 34.3473 80.9554 34.3473 80.9528 34.3465C80.9503 34.3458 80.9479 34.3444 80.946 34.3425C80.9441 34.3406 80.9428 34.3383 80.942 34.3357C80.9413 34.3331 80.9412 34.3304 80.9418 34.3278V33.41C80.9418 33.405 80.9438 33.4002 80.9474 33.3966C80.9509 33.3931 80.9557 33.3911 80.9607 33.3911V33.3942Z" fill="white"/>
<path d="M104.22 30.3223H105.422C105.445 30.3433 105.693 30.7817 106.166 31.6375C107.119 33.3595 107.615 34.2595 107.655 34.3373H106.267C106.233 34.3026 105.807 33.5362 104.981 32.0349C104.933 31.9424 104.881 31.8529 104.823 31.7668C103.896 33.4489 103.419 34.3057 103.394 34.3373H102V34.3183C103.426 31.7426 104.166 30.4106 104.22 30.3223Z" fill="white"/>
<path d="M114.016 30.3223H117.996C118.176 30.3228 118.354 30.3626 118.518 30.4388C118.681 30.5151 118.826 30.626 118.942 30.7638C119.099 30.9468 119.186 31.1791 119.188 31.4198V32.1484C119.184 32.3439 119.128 32.5347 119.026 32.7011C118.923 32.8675 118.778 33.0034 118.605 33.0946L118.453 33.1671L119.188 34.3467H117.756C117.722 34.3057 117.488 33.9367 117.056 33.2428H115.221V34.3278V34.3467H114.047C114.047 34.3467 114.032 34.3467 114.032 34.3278V30.3412C114.032 30.3412 114.006 30.3223 114.016 30.3223ZM115.205 31.2685V32.2714H117.498C117.604 32.2809 117.709 32.2516 117.795 32.1889C117.881 32.1262 117.941 32.0345 117.965 31.9308C117.969 31.8804 117.969 31.8298 117.965 31.7794C117.975 31.6788 117.953 31.5775 117.902 31.4902C117.851 31.4028 117.773 31.334 117.681 31.2937C117.622 31.2776 117.562 31.2691 117.501 31.2685H115.205Z" fill="white"/>
<path d="M125.568 30.3223H130.725C130.729 30.323 130.733 30.3253 130.736 30.3288C130.739 30.3323 130.741 30.3367 130.741 30.3412V31.259C130.741 31.259 130.741 31.2779 130.725 31.2779H128.754V34.3247C128.754 34.3247 128.754 34.3436 128.738 34.3436H127.555C127.553 34.3442 127.55 34.3441 127.547 34.3434C127.545 34.3426 127.542 34.3413 127.54 34.3394C127.539 34.3375 127.537 34.3351 127.536 34.3326C127.536 34.33 127.536 34.3273 127.536 34.3247V31.2779H125.568C125.566 31.2785 125.563 31.2785 125.56 31.2777C125.558 31.277 125.555 31.2756 125.553 31.2737C125.552 31.2718 125.55 31.2695 125.549 31.2669C125.549 31.2643 125.549 31.2616 125.549 31.259V30.3412L125.568 30.3223Z" fill="white"/>
<path d="M147.763 30.3223H150.57C150.771 30.3188 150.97 30.3643 151.15 30.455C151.329 30.5456 151.484 30.6787 151.601 30.8427C151.721 31.0134 151.786 31.2172 151.787 31.4262V33.246C151.784 33.4502 151.724 33.6493 151.612 33.8202C151.5 33.9911 151.342 34.1267 151.156 34.2111C150.978 34.2991 150.781 34.3444 150.582 34.3436H147.81C147.609 34.3445 147.412 34.2968 147.234 34.2045C147.056 34.1122 146.903 33.9781 146.788 33.8137C146.674 33.6508 146.613 33.4573 146.611 33.2586V31.4199C146.617 31.202 146.688 30.991 146.814 30.8135C146.941 30.636 147.117 30.5001 147.321 30.4232C147.462 30.3656 147.611 30.3315 147.763 30.3223ZM147.807 31.9339V32.7193C147.802 32.8625 147.847 33.0031 147.933 33.1177C148.019 33.2324 148.141 33.3143 148.28 33.3501C148.326 33.3626 148.374 33.3689 148.422 33.369H149.97C150.106 33.3688 150.238 33.3225 150.344 33.2377C150.45 33.1529 150.524 33.0346 150.554 32.9022C150.571 32.8439 150.578 32.7832 150.576 32.7224V31.956C150.588 31.8088 150.551 31.6616 150.471 31.5376C150.39 31.4137 150.271 31.3201 150.131 31.2716C150.055 31.2661 149.978 31.2661 149.901 31.2716H148.422C148.285 31.2702 148.153 31.3154 148.045 31.3997C147.938 31.484 147.863 31.6024 147.832 31.7352C147.813 31.7998 147.805 31.8668 147.807 31.9339Z" fill="white"/>
<path d="M158.16 30.3223H163.317C163.318 30.3251 163.319 30.3284 163.319 30.3317C163.319 30.335 163.318 30.3383 163.317 30.3412V31.259V31.2779H158.16C158.157 31.2785 158.155 31.2785 158.152 31.2777C158.149 31.277 158.147 31.2756 158.145 31.2737C158.143 31.2718 158.142 31.2695 158.141 31.2669C158.14 31.2643 158.14 31.2616 158.141 31.259V30.3412C158.141 30.3412 158.15 30.3223 158.16 30.3223ZM158.16 31.8993H163.317C163.318 31.9021 163.319 31.9054 163.319 31.9087C163.319 31.912 163.318 31.9153 163.317 31.9182V32.754V32.7729H159.349V34.3278C159.349 34.3278 159.349 34.3467 159.333 34.3467H158.16C158.157 34.3473 158.155 34.3473 158.152 34.3465C158.149 34.3458 158.147 34.3444 158.145 34.3425C158.143 34.3406 158.142 34.3383 158.141 34.3357C158.14 34.3331 158.14 34.3304 158.141 34.3278V31.9182C158.141 31.9182 158.15 31.8961 158.16 31.8961V31.8993Z" fill="white"/>
<path d="M179.209 30.3223H183.18C183.4 30.3216 183.616 30.3797 183.806 30.4906C183.996 30.6015 184.154 30.7611 184.261 30.9531C184.337 31.0985 184.378 31.2592 184.381 31.423V31.4829C184.378 31.648 184.337 31.8101 184.261 31.9567C184.185 32.1033 184.076 32.2304 183.943 32.3282C184.067 32.4204 184.171 32.5382 184.247 32.6736C184.322 32.809 184.368 32.959 184.381 33.1135V33.2933C184.372 33.4683 184.321 33.6384 184.23 33.7886C184.14 33.9387 184.014 34.0644 183.864 34.1543C183.709 34.2487 183.536 34.31 183.356 34.3341C183.356 34.3341 183.356 34.353 183.315 34.353H179.215C179.215 34.353 179.199 34.353 179.199 34.3341V30.3412C179.199 30.3412 179.199 30.3223 179.209 30.3223ZM180.401 31.2685V31.8993H182.852C182.919 31.9035 182.986 31.8858 183.043 31.8489C183.1 31.812 183.143 31.7578 183.167 31.6942C183.169 31.6575 183.169 31.6206 183.167 31.5839C183.168 31.5101 183.144 31.4381 183.098 31.3805C183.052 31.3228 182.987 31.2832 182.915 31.2685H180.401ZM180.401 32.7603V33.3911H182.852C182.92 33.3951 182.987 33.377 183.044 33.3395C183.101 33.3019 183.144 33.247 183.167 33.1829C183.169 33.1472 183.169 33.1114 183.167 33.0757C183.166 33.0164 183.148 32.9587 183.116 32.909C183.083 32.8594 183.038 32.8199 182.984 32.795C182.941 32.7776 182.895 32.769 182.848 32.7698L180.401 32.7603Z" fill="white"/>
<path d="M190.745 30.3223H194.722C194.902 30.3241 195.08 30.3644 195.243 30.4406C195.406 30.5167 195.551 30.6269 195.668 30.7638C195.825 30.9468 195.912 31.1791 195.914 31.4198V32.1484C195.911 32.3443 195.854 32.5355 195.751 32.7019C195.648 32.8684 195.502 33.0041 195.328 33.0946L195.176 33.1671L195.914 34.3467H195.896H194.467C194.432 34.3057 194.199 33.9367 193.767 33.2428H191.931V34.3278C191.932 34.3304 191.932 34.3331 191.931 34.3357C191.93 34.3383 191.929 34.3406 191.927 34.3425C191.925 34.3444 191.923 34.3458 191.92 34.3465C191.917 34.3473 191.915 34.3473 191.912 34.3467H190.742C190.739 34.3473 190.737 34.3473 190.734 34.3465C190.732 34.3458 190.729 34.3444 190.727 34.3425C190.725 34.3406 190.724 34.3383 190.723 34.3357C190.723 34.3331 190.722 34.3304 190.723 34.3278V30.3412C190.723 30.3412 190.736 30.3223 190.745 30.3223ZM191.934 31.2685V32.2714H194.227C194.332 32.2801 194.437 32.2504 194.523 32.1878C194.608 32.1252 194.668 32.0339 194.691 31.9308C194.701 31.8809 194.706 31.8302 194.707 31.7794C194.716 31.6785 194.694 31.5771 194.642 31.4899C194.59 31.4026 194.513 31.3339 194.42 31.2937C194.361 31.2771 194.301 31.2687 194.24 31.2685H191.934Z" fill="white"/>
<path d="M204.49 30.3223H205.692C205.715 30.3433 205.963 30.7817 206.436 31.6375C207.388 33.3595 207.885 34.2595 207.925 34.3373H206.537C206.505 34.3036 206.077 33.5362 205.253 32.0349C205.206 31.9418 205.152 31.8522 205.092 31.7668C204.165 33.4489 203.689 34.3057 203.664 34.3373H202.27V34.3183C203.699 31.7426 204.439 30.4106 204.49 30.3223Z" fill="white"/>
<path d="M214.285 30.3223H215.452C215.457 30.3223 215.462 30.3243 215.466 30.3278C215.469 30.3314 215.471 30.3362 215.471 30.3412V31.9403L217.818 30.3223H219.442C219.341 30.4085 218.679 30.8679 217.455 31.7005L219.442 34.3089H217.897C217.897 34.3089 217.392 33.6592 216.436 32.4165L215.471 33.0725V34.312C215.472 34.3146 215.472 34.3174 215.471 34.3199C215.47 34.3225 215.469 34.3249 215.467 34.3267C215.465 34.3286 215.463 34.33 215.46 34.3308C215.458 34.3315 215.455 34.3316 215.452 34.331H214.285C214.285 34.331 214.285 34.331 214.285 34.312V30.3412C214.285 30.3412 214.276 30.3223 214.285 30.3223Z" fill="white"/>
<path d="M225.811 30.3223H226.984C226.989 30.3223 226.994 30.3243 226.997 30.3278C227.001 30.3314 227.003 30.3362 227.003 30.3412V34.3247C227.004 34.3273 227.003 34.33 227.003 34.3326C227.002 34.3351 227.001 34.3375 226.999 34.3394C226.997 34.3413 226.994 34.3426 226.992 34.3434C226.989 34.3441 226.987 34.3442 226.984 34.3436H225.811C225.811 34.3436 225.795 34.3436 225.795 34.3247V30.3412C225.795 30.3412 225.801 30.3223 225.811 30.3223Z" fill="white"/>
<path d="M233.365 30.3223H237.371C237.559 30.3282 237.744 30.3757 237.912 30.4613C238.08 30.5469 238.227 30.6685 238.342 30.8174C238.464 30.9882 238.532 31.1913 238.538 31.4009V34.3247C238.538 34.3247 238.538 34.3436 238.522 34.3436H237.346C237.343 34.3442 237.34 34.3441 237.338 34.3434C237.335 34.3426 237.333 34.3413 237.331 34.3394C237.329 34.3375 237.328 34.3351 237.327 34.3326C237.326 34.33 237.326 34.3273 237.327 34.3247V31.997C237.343 31.8501 237.31 31.702 237.232 31.5762C237.154 31.4505 237.037 31.3544 236.898 31.3032C236.837 31.2878 236.775 31.2794 236.712 31.2779H234.554V34.3247V34.3436H233.381C233.381 34.3436 233.381 34.3436 233.381 34.3247V30.3412C233.381 30.3412 233.356 30.3223 233.365 30.3223Z" fill="white"/>
<path d="M246.067 30.3223H250.063C250.068 30.3223 250.073 30.3243 250.077 30.3278C250.08 30.3314 250.082 30.3362 250.082 30.3412V31.259C250.083 31.2616 250.083 31.2643 250.082 31.2669C250.081 31.2695 250.08 31.2718 250.078 31.2737C250.076 31.2756 250.074 31.277 250.071 31.2777C250.069 31.2785 250.066 31.2785 250.063 31.2779H246.717C246.578 31.281 246.444 31.33 246.335 31.4173C246.227 31.5045 246.15 31.6252 246.118 31.7605C246.108 31.8093 246.101 31.8589 246.099 31.9087V32.7193C246.091 32.8553 246.127 32.9902 246.202 33.1039C246.277 33.2176 246.387 33.304 246.515 33.3501C246.579 33.3767 246.648 33.3896 246.717 33.3879H248.887V32.6499V32.631H250.063C250.063 32.631 250.082 32.631 250.082 32.6499V34.3215C250.083 34.3241 250.083 34.3268 250.082 34.3294C250.081 34.332 250.08 34.3343 250.078 34.3362C250.076 34.3381 250.074 34.3395 250.071 34.3402C250.069 34.341 250.066 34.341 250.063 34.3404H246.093C245.913 34.3386 245.735 34.2983 245.572 34.2221C245.408 34.146 245.263 34.0357 245.146 33.8989C244.99 33.7156 244.903 33.4835 244.9 33.2428V31.4104C244.906 31.2031 244.97 31.0017 245.087 30.8305C245.204 30.6592 245.368 30.5255 245.56 30.4453C245.719 30.3703 245.892 30.3285 246.067 30.3223Z" fill="white"/>
<path d="M31.9582 8.16177e-06C28.9102 -0.0028245 25.9068 0.731718 23.2042 2.14096C20.5016 3.55021 18.18 5.59233 16.4375 8.09309H23.8619C25.8714 6.59176 28.2589 5.67914 30.7574 5.4573C33.2559 5.23547 35.7668 5.71318 38.0093 6.83699C40.2518 7.96081 42.1374 9.6864 43.4552 11.8207C44.7729 13.955 45.4708 16.4139 45.4708 18.9222C45.4708 21.4306 44.7729 23.8895 43.4552 26.0238C42.1374 28.1581 40.2518 29.8837 38.0093 31.0075C35.7668 32.1313 33.2559 32.609 30.7574 32.3872C28.2589 32.1654 25.8714 31.2527 23.8619 29.7514H16.4375C18.299 32.4197 20.817 34.563 23.7485 35.9743C26.6799 37.3857 29.9256 38.0175 33.1724 37.8086C36.4191 37.5998 39.5572 36.5574 42.2836 34.7821C45.0101 33.0068 47.2327 30.5585 48.7371 27.6737C50.2414 24.789 50.9766 21.565 50.8716 18.3133C50.7666 15.0615 49.825 11.8917 48.1378 9.10992C46.4505 6.32815 44.0746 4.02837 41.2394 2.43261C38.4041 0.836849 35.2053 -0.000980907 31.9519 8.16177e-06H31.9582Z" fill="#EC1C24"/>
<path d="M21.8656 11.9852C21.8656 12.4012 21.7422 12.808 21.5111 13.1539C21.2799 13.4999 20.9514 13.7695 20.567 13.9287C20.1826 14.088 19.7596 14.1296 19.3515 14.0484C18.9434 13.9673 18.5686 13.7669 18.2744 13.4727C17.9802 13.1785 17.7798 12.8037 17.6986 12.3956C17.6175 11.9875 17.6591 11.5645 17.8183 11.1801C17.9776 10.7957 18.2472 10.4672 18.5931 10.236C18.9391 10.0049 19.3458 9.88147 19.7619 9.88147C20.0383 9.88106 20.312 9.93519 20.5674 10.0408C20.8229 10.1463 21.0549 10.3013 21.2504 10.4967C21.4458 10.6921 21.6007 10.9242 21.7063 11.1796C21.8119 11.435 21.866 11.7088 21.8656 11.9852Z" fill="white"/>
<path d="M16.3974 11.8747C16.4192 12.2278 16.3358 12.5795 16.1577 12.8852C15.9796 13.191 15.7148 13.437 15.3968 13.5921C15.0789 13.7473 14.722 13.8047 14.3714 13.757C14.0209 13.7093 13.6923 13.5587 13.4273 13.3242C13.1624 13.0897 12.973 12.7819 12.883 12.4397C12.793 12.0975 12.8066 11.7364 12.922 11.4019C13.0373 11.0674 13.2493 10.7747 13.5311 10.5607C13.8129 10.3468 14.1519 10.2212 14.505 10.2C14.7393 10.1854 14.9741 10.2173 15.1961 10.2936C15.4181 10.3699 15.6228 10.4893 15.7986 10.6449C15.9743 10.8004 16.1177 10.9891 16.2205 11.2002C16.3232 11.4112 16.3833 11.6404 16.3974 11.8747Z" fill="white"/>
<path d="M11.5626 11.9031C11.5789 12.1938 11.5088 12.4827 11.361 12.7335C11.2132 12.9843 10.9944 13.1857 10.7322 13.3122C10.47 13.4387 10.1762 13.4847 9.88795 13.4444C9.59965 13.404 9.32977 13.2792 9.1124 13.0855C8.89502 12.8919 8.73988 12.6382 8.66659 12.3565C8.5933 12.0748 8.60513 11.7777 8.70059 11.5027C8.79605 11.2277 8.97086 10.9871 9.20295 10.8114C9.43503 10.6357 9.71398 10.5327 10.0046 10.5154C10.3952 10.493 10.7787 10.6266 11.0708 10.8868C11.363 11.147 11.5399 11.5125 11.5626 11.9031Z" fill="white"/>
<path d="M7.35974 11.9032C7.37369 12.1318 7.31952 12.3594 7.20407 12.5572C7.08862 12.755 6.91709 12.9141 6.71119 13.0144C6.50528 13.1147 6.27426 13.1516 6.04735 13.1205C5.82044 13.0895 5.60785 12.9918 5.43648 12.8398C5.26511 12.6879 5.14267 12.4886 5.08464 12.267C5.02662 12.0454 5.03562 11.8117 5.11051 11.5952C5.1854 11.3788 5.32281 11.1894 5.50536 11.0511C5.6879 10.9128 5.90737 10.8318 6.136 10.8182C6.44208 10.8001 6.74285 10.9042 6.97228 11.1076C7.20171 11.311 7.34106 11.5972 7.35974 11.9032Z" fill="white"/>
<path d="M3.78613 11.9346C3.79641 12.1009 3.75717 12.2664 3.67337 12.4104C3.58957 12.5543 3.46497 12.6701 3.31533 12.7433C3.16569 12.8164 2.99773 12.8435 2.83268 12.8212C2.66764 12.7988 2.51292 12.728 2.3881 12.6178C2.26328 12.5075 2.17396 12.3627 2.13143 12.2017C2.0889 12.0406 2.09508 11.8706 2.14919 11.7131C2.20329 11.5556 2.30288 11.4176 2.43538 11.3167C2.56788 11.2158 2.72732 11.1565 2.89355 11.1462C3.00403 11.1389 3.11484 11.1536 3.21962 11.1893C3.32439 11.2251 3.42105 11.2813 3.50402 11.3545C3.58699 11.4278 3.65464 11.5168 3.70306 11.6164C3.75147 11.716 3.77971 11.8241 3.78613 11.9346Z" fill="white"/>
<path d="M1.05031 11.9536C1.05571 12.0568 1.03046 12.1593 0.977721 12.2482C0.924984 12.3371 0.847125 12.4083 0.753953 12.4531C0.66078 12.4978 0.556461 12.5139 0.454137 12.4994C0.351813 12.4849 0.256061 12.4405 0.178943 12.3717C0.101825 12.3029 0.0467901 12.2128 0.0207716 12.1128C-0.00524696 12.0128 -0.00108537 11.9073 0.032732 11.8097C0.0665494 11.712 0.12851 11.6266 0.210808 11.5641C0.293107 11.5016 0.392062 11.4648 0.495208 11.4585C0.564242 11.4542 0.633435 11.4637 0.698792 11.4863C0.764149 11.5089 0.824373 11.5443 0.875986 11.5903C0.9276 11.6364 0.96958 11.6922 0.9995 11.7545C1.02942 11.8169 1.04669 11.8846 1.05031 11.9536Z" fill="white"/>
<path d="M27.9632 11.9851C27.9632 12.4637 27.8212 12.9316 27.5553 13.3294C27.2893 13.7273 26.9113 14.0374 26.4691 14.2204C26.0269 14.4034 25.5403 14.4511 25.071 14.3575C24.6016 14.2639 24.1706 14.0332 23.8324 13.6946C23.4942 13.3559 23.2641 12.9246 23.1711 12.4551C23.0781 11.9857 23.1265 11.4992 23.3101 11.0572C23.4936 10.6152 23.8042 10.2376 24.2024 9.9722C24.6006 9.70677 25.0687 9.56542 25.5472 9.56604C25.8648 9.56604 26.1792 9.62864 26.4725 9.75025C26.7658 9.87186 27.0323 10.0501 27.2567 10.2748C27.4811 10.4994 27.659 10.7661 27.7802 11.0596C27.9014 11.3531 27.9636 11.6676 27.9632 11.9851Z" fill="white"/>
<path d="M21.8656 18.9238C21.8656 19.3399 21.7422 19.7466 21.5111 20.0926C21.2799 20.4385 20.9514 20.7082 20.567 20.8674C20.1826 21.0266 19.7596 21.0683 19.3515 20.9871C18.9434 20.9059 18.5686 20.7056 18.2744 20.4114C17.9802 20.1172 17.7798 19.7423 17.6986 19.3342C17.6175 18.9262 17.6591 18.5032 17.8183 18.1188C17.9776 17.7344 18.2472 17.4058 18.5931 17.1747C18.9391 16.9435 19.3458 16.8201 19.7619 16.8201C20.0383 16.8197 20.312 16.8738 20.5674 16.9794C20.8229 17.085 21.0549 17.2399 21.2504 17.4354C21.4458 17.6308 21.6007 17.8629 21.7063 18.1183C21.8119 18.3737 21.866 18.6475 21.8656 18.9238Z" fill="white"/>
<path d="M16.3974 18.8134C16.4192 19.1665 16.3358 19.5182 16.1577 19.8239C15.9796 20.1296 15.7148 20.3756 15.3968 20.5308C15.0789 20.686 14.722 20.7434 14.3714 20.6957C14.0209 20.648 13.6923 20.4973 13.4273 20.2629C13.1624 20.0284 12.973 19.7206 12.883 19.3784C12.793 19.0362 12.8066 18.675 12.922 18.3405C13.0373 18.0061 13.2493 17.7133 13.5311 17.4994C13.8129 17.2854 14.1519 17.1599 14.505 17.1386C14.7393 17.1241 14.9741 17.1559 15.1961 17.2323C15.4181 17.3086 15.6228 17.428 15.7986 17.5835C15.9743 17.7391 16.1177 17.9278 16.2205 18.1388C16.3232 18.3498 16.3833 18.5791 16.3974 18.8134Z" fill="white"/>
<path d="M11.5626 18.8418C11.5789 19.1325 11.5088 19.4214 11.361 19.6722C11.2132 19.923 10.9944 20.1244 10.7322 20.2509C10.47 20.3774 10.1762 20.4234 9.88795 20.3831C9.59965 20.3427 9.32977 20.2179 9.1124 20.0243C8.89502 19.8306 8.73988 19.577 8.66659 19.2952C8.5933 19.0135 8.60513 18.7164 8.70059 18.4414C8.79605 18.1664 8.97086 17.9258 9.20295 17.7501C9.43503 17.5744 9.71398 17.4714 10.0046 17.4541C10.1981 17.4426 10.3919 17.4694 10.5751 17.5329C10.7582 17.5965 10.9269 17.6956 11.0717 17.8245C11.2164 17.9534 11.3343 18.1097 11.4186 18.2842C11.5028 18.4588 11.5518 18.6483 11.5626 18.8418Z" fill="white"/>
<path d="M7.35954 18.8419C7.37412 19.0706 7.3205 19.2985 7.20547 19.4966C7.09043 19.6948 6.91916 19.8544 6.71335 19.9552C6.50755 20.0559 6.27646 20.0933 6.04937 20.0626C5.82229 20.032 5.60942 19.9346 5.43774 19.7828C5.26605 19.631 5.14328 19.4317 5.08497 19.2101C5.02667 18.9885 5.03545 18.7546 5.1102 18.5379C5.18496 18.3213 5.32233 18.1318 5.50491 17.9933C5.68748 17.8548 5.90705 17.7737 6.1358 17.7601C6.2872 17.7507 6.43897 17.7712 6.58244 17.8205C6.7259 17.8698 6.85824 17.9469 6.97189 18.0474C7.08554 18.1478 7.17827 18.2697 7.24479 18.4061C7.31131 18.5424 7.3503 18.6905 7.35954 18.8419Z" fill="white"/>
<path d="M3.78613 18.8702C3.79641 19.0364 3.75717 19.202 3.67337 19.3459C3.58957 19.4898 3.46497 19.6057 3.31533 19.6788C3.16569 19.7519 2.99773 19.779 2.83268 19.7567C2.66764 19.7344 2.51292 19.6636 2.3881 19.5533C2.26328 19.443 2.17396 19.2982 2.13143 19.1372C2.0889 18.9762 2.09508 18.8062 2.14919 18.6486C2.20329 18.4911 2.30288 18.3532 2.43538 18.2523C2.56788 18.1513 2.72732 18.092 2.89355 18.0817C3.00394 18.0749 3.11458 18.0898 3.21918 18.1257C3.32377 18.1617 3.42027 18.2178 3.50315 18.2911C3.58604 18.3643 3.65369 18.4531 3.70224 18.5525C3.75079 18.6518 3.7793 18.7598 3.78613 18.8702Z" fill="white"/>
<path d="M1.05209 18.8891C1.05812 18.9924 1.03341 19.0952 0.981085 19.1845C0.928756 19.2737 0.851153 19.3455 0.758072 19.3907C0.664992 19.4359 0.560609 19.4525 0.458105 19.4384C0.3556 19.4243 0.259569 19.3801 0.182138 19.3115C0.104707 19.2429 0.0493478 19.1528 0.0230508 19.0527C-0.00324614 18.9527 0.000698284 18.8471 0.0343857 18.7492C0.068073 18.6514 0.129993 18.5657 0.212327 18.5031C0.294661 18.4404 0.393717 18.4035 0.496988 18.3971C0.635701 18.3894 0.771868 18.4367 0.875836 18.5289C0.979804 18.621 1.04315 18.7505 1.05209 18.8891Z" fill="white"/>
<path d="M27.9632 18.9239C27.9632 19.4024 27.8212 19.8703 27.5553 20.2682C27.2893 20.666 26.9113 20.9761 26.4691 21.1591C26.0269 21.3421 25.5403 21.3898 25.071 21.2962C24.6016 21.2026 24.1706 20.9719 23.8324 20.6333C23.4942 20.2947 23.2641 19.8633 23.1711 19.3939C23.0781 18.9244 23.1265 18.4379 23.3101 17.9959C23.4936 17.5539 23.8042 17.1764 24.2024 16.9109C24.6006 16.6455 25.0687 16.5041 25.5472 16.5048C25.8648 16.5048 26.1792 16.5674 26.4725 16.689C26.7658 16.8106 27.0323 16.9888 27.2567 17.2135C27.4811 17.4382 27.659 17.7049 27.7802 17.9984C27.9014 18.2918 27.9636 18.6063 27.9632 18.9239Z" fill="white"/>
<path d="M34.6916 18.9239C34.6916 19.4649 34.5312 19.9937 34.2306 20.4434C33.93 20.8932 33.5027 21.2437 33.0029 21.4505C32.503 21.6574 31.953 21.7114 31.4225 21.6056C30.892 21.4998 30.4048 21.2391 30.0225 20.8563C29.6402 20.4736 29.38 19.9861 29.2748 19.4554C29.1697 18.9248 29.2243 18.3749 29.4317 17.8753C29.6392 17.3756 29.9901 16.9488 30.4402 16.6487C30.8903 16.3486 31.4193 16.1888 31.9603 16.1894C32.3193 16.1894 32.6747 16.2601 33.0063 16.3976C33.3379 16.5351 33.6391 16.7365 33.8928 16.9905C34.1464 17.2445 34.3476 17.5459 34.4846 17.8777C34.6217 18.2094 34.6921 18.5649 34.6916 18.9239Z" fill="white"/>
<path d="M21.8656 25.8594C21.8662 26.2756 21.7434 26.6826 21.5126 27.029C21.2818 27.3754 20.9535 27.6455 20.5691 27.8052C20.1848 27.9649 19.7617 28.007 19.3534 27.9262C18.9451 27.8454 18.57 27.6453 18.2755 27.3512C17.981 27.0571 17.7803 26.6823 17.6989 26.2741C17.6174 25.866 17.6589 25.4428 17.818 25.0582C17.9772 24.6736 18.2468 24.3449 18.5928 24.1136C18.9388 23.8823 19.3457 23.7589 19.7619 23.7589C20.038 23.7584 20.3115 23.8125 20.5667 23.9178C20.8219 24.0232 21.0539 24.1779 21.2492 24.373C21.4446 24.5681 21.5996 24.7998 21.7054 25.0548C21.8112 25.3099 21.8656 25.5833 21.8656 25.8594Z" fill="white"/>
<path d="M16.3974 25.7523C16.4192 26.1054 16.3358 26.4571 16.1577 26.7628C15.9796 27.0685 15.7148 27.3145 15.3968 27.4697C15.0789 27.6249 14.722 27.6823 14.3714 27.6346C14.0209 27.5869 13.6923 27.4362 13.4273 27.2018C13.1624 26.9673 12.973 26.6595 12.883 26.3173C12.793 25.9751 12.8066 25.6139 12.922 25.2794C13.0373 24.945 13.2493 24.6522 13.5311 24.4383C13.8129 24.2243 14.1519 24.0988 14.505 24.0775C14.978 24.049 15.4429 24.2094 15.7977 24.5234C16.1525 24.8374 16.3682 25.2794 16.3974 25.7523Z" fill="white"/>
<path d="M11.5626 25.7805C11.5789 26.0711 11.5088 26.3601 11.361 26.6109C11.2132 26.8617 10.9944 27.063 10.7322 27.1896C10.47 27.3161 10.1762 27.3621 9.88795 27.3217C9.59965 27.2814 9.32977 27.1565 9.1124 26.9629C8.89502 26.7693 8.73988 26.5156 8.66659 26.2339C8.5933 25.9522 8.60513 25.655 8.70059 25.38C8.79605 25.105 8.97086 24.8645 9.20295 24.6888C9.43503 24.513 9.71398 24.41 10.0046 24.3927C10.1981 24.3812 10.3919 24.408 10.5751 24.4716C10.7582 24.5352 10.9269 24.6342 11.0717 24.7632C11.2164 24.8921 11.3343 25.0483 11.4186 25.2229C11.5028 25.3975 11.5518 25.5869 11.5626 25.7805Z" fill="white"/>
<path d="M7.35974 25.7806C7.37369 26.0092 7.31952 26.2368 7.20407 26.4346C7.08862 26.6324 6.91709 26.7915 6.71119 26.8918C6.50528 26.992 6.27426 27.029 6.04735 26.9979C5.82044 26.9668 5.60785 26.8692 5.43648 26.7172C5.26511 26.5653 5.14267 26.3659 5.08464 26.1444C5.02662 25.9228 5.03562 25.689 5.11051 25.4726C5.1854 25.2562 5.32281 25.0668 5.50536 24.9285C5.6879 24.7902 5.90737 24.7092 6.136 24.6956C6.44208 24.6775 6.74285 24.7816 6.97228 24.985C7.20171 25.1884 7.34106 25.4745 7.35974 25.7806Z" fill="white"/>
<path d="M3.78613 25.809C3.79641 25.9753 3.75717 26.1408 3.67337 26.2847C3.58957 26.4287 3.46497 26.5445 3.31533 26.6176C3.16569 26.6908 2.99773 26.7179 2.83268 26.6955C2.66764 26.6732 2.51292 26.6024 2.3881 26.4922C2.26328 26.3819 2.17396 26.2371 2.13143 26.0761C2.0889 25.915 2.09508 25.745 2.14919 25.5875C2.20329 25.43 2.30288 25.292 2.43538 25.1911C2.56788 25.0902 2.72732 25.0308 2.89355 25.0205C3.00394 25.0137 3.11458 25.0287 3.21918 25.0646C3.32377 25.1005 3.42027 25.1567 3.50315 25.2299C3.58604 25.3031 3.65369 25.392 3.70224 25.4913C3.75079 25.5907 3.7793 25.6986 3.78613 25.809Z" fill="white"/>
<path d="M1.05209 25.8279C1.05812 25.9312 1.03341 26.0339 0.981085 26.1232C0.928756 26.2124 0.851153 26.2842 0.758072 26.3294C0.664992 26.3746 0.560609 26.3912 0.458105 26.3771C0.3556 26.363 0.259569 26.3188 0.182138 26.2502C0.104707 26.1816 0.0493478 26.0915 0.0230508 25.9915C-0.00324614 25.8914 0.000698284 25.7858 0.0343857 25.6879C0.068073 25.5901 0.129993 25.5045 0.212327 25.4418C0.294661 25.3791 0.393717 25.3423 0.496988 25.3358C0.635701 25.3281 0.771868 25.3754 0.875836 25.4676C0.979804 25.5597 1.04315 25.6892 1.05209 25.8279Z" fill="white"/>
<path d="M27.9632 25.8594C27.9638 26.3381 27.8224 26.8063 27.5568 27.2046C27.2912 27.6029 26.9135 27.9134 26.4713 28.0969C26.0291 28.2804 25.5425 28.3286 25.0729 28.2353C24.6034 28.1421 24.172 27.9116 23.8335 27.5731C23.495 27.2346 23.2646 26.8033 23.1713 26.3337C23.0781 25.8642 23.1263 25.3775 23.3097 24.9354C23.4932 24.4932 23.8038 24.1154 24.2021 23.8499C24.6004 23.5843 25.0685 23.4429 25.5472 23.4435C26.188 23.4435 26.8025 23.698 27.2556 24.1511C27.7087 24.6042 27.9632 25.2187 27.9632 25.8594Z" fill="white"/>
</g>
<defs>
<clipPath id="clip0_2082_5977">
<rect width="250.081" height="37.8445" fill="white"/>
</clipPath>
</defs>
</svg>
