<svg width="24" height="24" viewBox="0 0 24 24" fill="none" xmlns="http://www.w3.org/2000/svg">
<path d="M14.4 3.6094C14.4396 3.4646 14.5345 3.34118 14.6643 3.26576C14.7941 3.19034 14.9483 3.16897 15.0938 3.20628C16.46 3.57351 17.7058 4.29341 18.7062 5.29381C19.7066 6.29421 20.4265 7.53999 20.7938 8.90628C20.8135 8.97831 20.8187 9.05355 20.8091 9.12762C20.7994 9.20169 20.7752 9.27309 20.7376 9.33767C20.7001 9.40225 20.6501 9.45871 20.5905 9.50375C20.5309 9.5488 20.463 9.58153 20.3906 9.60003L20.25 9.61878C20.1255 9.61858 20.0045 9.57705 19.9061 9.5007C19.8077 9.42435 19.7374 9.3175 19.7063 9.1969C19.3883 8.02263 18.7684 6.95211 17.9081 6.09188C17.0479 5.23165 15.9774 4.61172 14.8031 4.29378C14.6604 4.25414 14.5386 4.16065 14.4634 4.03299C14.3882 3.90534 14.3655 3.75348 14.4 3.6094ZM14.025 7.19065C14.691 7.37296 15.298 7.7256 15.7862 8.21384C16.2744 8.70207 16.6271 9.30906 16.8094 9.97503C16.8405 10.0956 16.9108 10.2025 17.0092 10.2788C17.1076 10.3552 17.2286 10.3967 17.3531 10.3969L17.4938 10.3782C17.6372 10.3365 17.7592 10.2412 17.8342 10.112C17.9093 9.98281 17.9317 9.82969 17.8969 9.6844C17.6652 8.82642 17.2126 8.04419 16.5842 7.41579C15.9558 6.78739 15.1736 6.33478 14.3156 6.10315C14.1703 6.06831 14.0172 6.09075 13.888 6.16581C13.7589 6.24088 13.6635 6.3628 13.6219 6.50628C13.5848 6.65048 13.6064 6.80349 13.682 6.93178C13.7576 7.06006 13.8809 7.15315 14.025 7.19065ZM21.525 16.3875C21.3678 17.6096 20.7712 18.7327 19.8464 19.5471C18.9217 20.3614 17.7322 20.8112 16.5 20.8125C9.15938 20.8125 3.1875 14.8407 3.1875 7.50003C3.18883 6.26786 3.63866 5.07831 4.45297 4.15358C5.26729 3.22885 6.39039 2.63218 7.6125 2.47503C7.89371 2.44211 8.17803 2.50101 8.42302 2.64293C8.66801 2.78486 8.86054 3.0022 8.97188 3.26253L10.8563 7.6594C10.9417 7.85834 10.977 8.07524 10.959 8.29102C10.9411 8.5068 10.8704 8.71486 10.7531 8.8969L9.1875 11.2782C9.17203 11.305 9.16311 11.3351 9.16148 11.3661C9.15985 11.397 9.16556 11.4279 9.17813 11.4563C9.89825 12.9328 11.0934 14.1246 12.5719 14.8407C12.6006 14.8535 12.6322 14.8586 12.6635 14.8553C12.6948 14.852 12.7246 14.8405 12.75 14.8219L15.1031 13.2563C15.2834 13.1352 15.4912 13.0614 15.7075 13.0417C15.9238 13.0221 16.1415 13.0572 16.3406 13.1438L20.7375 15.0282C20.9978 15.1395 21.2152 15.332 21.3571 15.577C21.499 15.822 21.5579 16.1063 21.525 16.3875ZM20.4094 16.2469C20.4126 16.2078 20.4035 16.1687 20.3833 16.1351C20.3631 16.1014 20.3329 16.075 20.2969 16.0594L15.9 14.175C15.8709 14.1638 15.8396 14.1597 15.8087 14.163C15.7777 14.1662 15.748 14.1768 15.7219 14.1938L13.3781 15.7594C13.1884 15.8841 12.9699 15.9581 12.7434 15.9745C12.517 15.9909 12.2901 15.9491 12.0844 15.8532C10.3791 15.023 8.99989 13.6471 8.16563 11.9438C8.0682 11.7405 8.02478 11.5155 8.03956 11.2905C8.05434 11.0656 8.12681 10.8482 8.25 10.6594L9.80625 8.27815C9.82483 8.25276 9.83635 8.22291 9.83964 8.19162C9.84294 8.16033 9.83788 8.12873 9.825 8.10003L7.94063 3.70315C7.92625 3.67019 7.90269 3.64207 7.87277 3.62212C7.84285 3.60217 7.80783 3.59125 7.77188 3.59065H7.75313C6.8036 3.71547 5.93158 4.18047 5.29886 4.89939C4.66614 5.61831 4.31568 6.54234 4.3125 7.50003C4.31498 10.7316 5.59982 13.8301 7.88488 16.1152C10.1699 18.4002 13.2684 19.685 16.5 19.6875C17.4577 19.6843 18.3817 19.3339 19.1006 18.7012C19.8196 18.0684 20.2846 17.1964 20.4094 16.2469Z" fill="white"/>
</svg>
