<svg width="24" height="24" viewBox="0 0 24 24" fill="none" xmlns="http://www.w3.org/2000/svg">
<path d="M9.48964 23.1297C8.17189 23.1297 7.09976 22.0576 7.09976 20.7398C7.09976 19.4221 8.17189 18.3503 9.48964 18.3503C10.8074 18.3503 11.8795 19.4221 11.8795 20.7398C11.8795 22.0576 10.8074 23.1297 9.48964 23.1297ZM9.48964 19.8503C9.25375 19.8505 9.02758 19.9443 8.86075 20.1111C8.69392 20.2778 8.60006 20.5039 8.59976 20.7398C8.59976 21.2307 8.99876 21.6297 9.48964 21.6297C9.98051 21.6297 10.3795 21.2307 10.3795 20.7398C10.3792 20.5039 10.2854 20.2778 10.1185 20.1111C9.95169 19.9443 9.72552 19.8505 9.48964 19.8503ZM17.7974 23.1297C16.4796 23.1297 15.4079 22.0576 15.4079 20.7398C15.4079 19.4221 16.4796 18.3503 17.7974 18.3503C19.1151 18.3503 20.1873 19.4221 20.1873 20.7398C20.1873 22.0576 19.1148 23.1297 17.7974 23.1297ZM17.7974 19.8503C17.5616 19.8506 17.3355 19.9444 17.1687 20.1112C17.002 20.2779 16.9082 20.504 16.9079 20.7398C16.9081 20.9757 17.0019 21.2019 17.1686 21.3687C17.3354 21.5355 17.5615 21.6294 17.7974 21.6297C18.0333 21.6295 18.2596 21.5357 18.4264 21.3688C18.5932 21.202 18.6871 20.9758 18.6873 20.7398C18.687 20.5039 18.5931 20.2778 18.4263 20.1111C18.2594 19.9443 18.0333 19.8505 17.7974 19.8503ZM19.5471 16.4978H7.76501C7.21129 16.5 6.67341 16.3131 6.24038 15.968C5.80736 15.6228 5.50515 15.1402 5.38376 14.6L2.93839 3.92108C2.92218 3.85105 2.89026 3.78563 2.84505 3.72975C2.79983 3.67388 2.7425 3.62903 2.67739 3.59858L0.649013 2.65845C0.427427 2.55146 0.256787 2.36165 0.173913 2.12996C0.0910393 1.89827 0.102576 1.64329 0.206034 1.42003C0.309492 1.19678 0.496576 1.02315 0.726918 0.936605C0.95726 0.850064 1.21239 0.857551 1.43726 0.957452L3.46564 1.89758C3.78992 2.04898 4.07553 2.27215 4.30084 2.55022C4.52614 2.82828 4.68526 3.15395 4.76614 3.50258L7.21151 14.1822C7.23971 14.3078 7.30996 14.42 7.41062 14.5002C7.51128 14.5804 7.63631 14.6238 7.76501 14.6232H19.5471C19.6755 14.6236 19.8002 14.5803 19.9008 14.5006C20.0013 14.4208 20.0718 14.3092 20.1006 14.1841L22.0019 6.0042C22.022 5.92104 22.0227 5.83436 22.004 5.75086C21.9853 5.66737 21.9476 5.58931 21.8939 5.5227C21.8411 5.45527 21.7736 5.40085 21.6965 5.36366C21.6194 5.32647 21.5347 5.30749 21.4491 5.3082H7.57414C7.3255 5.3082 7.08704 5.20943 6.91123 5.03361C6.73541 4.8578 6.63664 4.61934 6.63664 4.3707C6.63664 4.12206 6.73541 3.8836 6.91123 3.70779C7.08704 3.53197 7.3255 3.4332 7.57414 3.4332H21.4491C22.1988 3.4332 22.8955 3.76958 23.362 4.35645C23.8285 4.94333 23.998 5.69858 23.8285 6.4287L21.9269 14.609C21.8033 15.1471 21.5005 15.6272 21.068 15.9704C20.6356 16.3137 20.0993 16.4997 19.5471 16.4978Z" fill="white"/>
</svg>
