<svg width="36" height="36" viewBox="0 0 36 36" fill="none" xmlns="http://www.w3.org/2000/svg">
<path d="M3.83542 25.0641L5.99542 27.2241V32.9997C5.99637 33.7951 6.31275 34.5576 6.87515 35.12C7.43756 35.6824 8.20006 35.9988 8.99542 35.9997H33.0008C33.7962 35.9988 34.5587 35.6824 35.1211 35.12C35.6835 34.5576 35.9999 33.7951 36.0008 32.9997V17.9997C35.9985 17.2425 35.7094 16.5142 35.1918 15.9615C34.6741 15.4087 33.9663 15.0726 33.2108 15.0207C33.5134 14.4549 33.6269 13.8071 33.5348 13.172C33.4427 12.537 33.1498 11.9482 32.699 11.4915L25.0586 3.84634L25.055 3.83974H25.0496L22.091 0.877538C21.5286 0.316225 20.7664 0.000976562 19.9718 0.000976562C19.1772 0.000976562 18.4151 0.316225 17.8526 0.877538L0.877421 17.8593C0.31781 18.4247 0.00390625 19.1881 0.00390625 19.9836C0.00390625 20.7792 0.31781 21.5425 0.877421 22.1079L3.83542 25.0641ZM22.0868 2.57014L23.7818 4.26634L13.0544 14.9997H9.66082L22.0868 2.57014ZM6.00082 22.0533L4.26082 23.7933L2.56522 22.0977L6.00082 18.6597V22.0533ZM5.10922 24.6417L6.00082 23.7501V25.5333L5.10922 24.6417ZM34.8008 17.9997V32.9997C34.8008 33.4771 34.6112 33.935 34.2736 34.2725C33.936 34.6101 33.4782 34.7997 33.0008 34.7997H9.00082C8.52343 34.7997 8.06559 34.6101 7.72803 34.2725C7.39046 33.935 7.20082 33.4771 7.20082 32.9997V17.9997C7.20082 17.5223 7.39046 17.0645 7.72803 16.7269C8.06559 16.3894 8.52343 16.1997 9.00082 16.1997H33.0008C33.4782 16.1997 33.936 16.3894 34.2736 16.7269C34.6112 17.0645 34.8008 17.5223 34.8008 17.9997ZM31.8506 14.8875L31.7408 14.9997H14.7506L24.6302 5.11534L31.8488 12.3381C32.1855 12.6769 32.3745 13.1349 32.3749 13.6125C32.3752 14.09 32.1868 14.5483 31.8506 14.8875ZM1.72702 18.7059L18.701 1.72594C19.0429 1.39925 19.4973 1.21664 19.9702 1.21597C20.4431 1.2153 20.898 1.39662 21.2408 1.72234L7.60642 15.3597C7.07602 15.6408 6.64212 16.0745 6.36082 16.6047L1.71802 21.2481C1.38644 20.9076 1.20165 20.4505 1.20334 19.9752C1.20502 19.4999 1.39304 19.0442 1.72702 18.7059Z" fill="url(#paint0_linear_317_4824)"/>
<path d="M9.60234 22.8H13.2023C13.5206 22.8 13.8258 22.6736 14.0509 22.4485C14.2759 22.2235 14.4023 21.9183 14.4023 21.6V19.2C14.4023 18.8817 14.2759 18.5765 14.0509 18.3515C13.8258 18.1264 13.5206 18 13.2023 18H9.60234C9.28408 18 8.97886 18.1264 8.75382 18.3515C8.52877 18.5765 8.40234 18.8817 8.40234 19.2V21.6C8.40234 21.9183 8.52877 22.2235 8.75382 22.4485C8.97886 22.6736 9.28408 22.8 9.60234 22.8ZM9.60234 19.2H13.2023V21.6H9.60234V19.2ZM9.00234 26.4C9.16147 26.4 9.31409 26.3368 9.42661 26.2243C9.53913 26.1117 9.60234 25.9591 9.60234 25.8V24.6C9.60234 24.4409 9.53913 24.2883 9.42661 24.1757C9.31409 24.0632 9.16147 24 9.00234 24C8.84321 24 8.6906 24.0632 8.57808 24.1757C8.46556 24.2883 8.40234 24.4409 8.40234 24.6V25.8C8.40234 25.9591 8.46556 26.1117 8.57808 26.2243C8.6906 26.3368 8.84321 26.4 9.00234 26.4ZM11.4023 24C11.2432 24 11.0906 24.0632 10.9781 24.1757C10.8656 24.2883 10.8023 24.4409 10.8023 24.6V25.8C10.8023 25.9591 10.8656 26.1117 10.9781 26.2243C11.0906 26.3368 11.2432 26.4 11.4023 26.4C11.5615 26.4 11.7141 26.3368 11.8266 26.2243C11.9391 26.1117 12.0023 25.9591 12.0023 25.8V24.6C12.0023 24.4409 11.9391 24.2883 11.8266 24.1757C11.7141 24.0632 11.5615 24 11.4023 24ZM13.2023 24.6V25.8C13.2023 25.9591 13.2656 26.1117 13.3781 26.2243C13.4906 26.3368 13.6432 26.4 13.8023 26.4C13.9615 26.4 14.1141 26.3368 14.2266 26.2243C14.3391 26.1117 14.4023 25.9591 14.4023 25.8V24.6C14.4023 24.4409 14.3391 24.2883 14.2266 24.1757C14.1141 24.0632 13.9615 24 13.8023 24C13.6432 24 13.4906 24.0632 13.3781 24.1757C13.2656 24.2883 13.2023 24.4409 13.2023 24.6ZM16.2023 24C16.0432 24 15.8906 24.0632 15.7781 24.1757C15.6656 24.2883 15.6023 24.4409 15.6023 24.6V25.8C15.6023 25.9591 15.6656 26.1117 15.7781 26.2243C15.8906 26.3368 16.0432 26.4 16.2023 26.4C16.3615 26.4 16.5141 26.3368 16.6266 26.2243C16.7391 26.1117 16.8023 25.9591 16.8023 25.8V24.6C16.8023 24.4409 16.7391 24.2883 16.6266 24.1757C16.5141 24.0632 16.3615 24 16.2023 24ZM18.6023 26.4C18.7615 26.4 18.9141 26.3368 19.0266 26.2243C19.1391 26.1117 19.2023 25.9591 19.2023 25.8V24.6C19.2023 24.4409 19.1391 24.2883 19.0266 24.1757C18.9141 24.0632 18.7615 24 18.6023 24C18.4432 24 18.2906 24.0632 18.1781 24.1757C18.0656 24.2883 18.0023 24.4409 18.0023 24.6V25.8C18.0023 25.9591 18.0656 26.1117 18.1781 26.2243C18.2906 26.3368 18.4432 26.4 18.6023 26.4ZM23.4023 24C23.2432 24 23.0906 24.0632 22.9781 24.1757C22.8656 24.2883 22.8023 24.4409 22.8023 24.6V25.8C22.8023 25.9591 22.8656 26.1117 22.9781 26.2243C23.0906 26.3368 23.2432 26.4 23.4023 26.4C23.5615 26.4 23.7141 26.3368 23.8266 26.2243C23.9391 26.1117 24.0023 25.9591 24.0023 25.8V24.6C24.0023 24.4409 23.9391 24.2883 23.8266 24.1757C23.7141 24.0632 23.5615 24 23.4023 24ZM25.8023 24C25.6432 24 25.4906 24.0632 25.3781 24.1757C25.2656 24.2883 25.2023 24.4409 25.2023 24.6V25.8C25.2023 25.9591 25.2656 26.1117 25.3781 26.2243C25.4906 26.3368 25.6432 26.4 25.8023 26.4C25.9615 26.4 26.1141 26.3368 26.2266 26.2243C26.3391 26.1117 26.4023 25.9591 26.4023 25.8V24.6C26.4023 24.4409 26.3391 24.2883 26.2266 24.1757C26.1141 24.0632 25.9615 24 25.8023 24ZM28.2023 24C28.0432 24 27.8906 24.0632 27.7781 24.1757C27.6656 24.2883 27.6023 24.4409 27.6023 24.6V25.8C27.6023 25.9591 27.6656 26.1117 27.7781 26.2243C27.8906 26.3368 28.0432 26.4 28.2023 26.4C28.3615 26.4 28.5141 26.3368 28.6266 26.2243C28.7391 26.1117 28.8023 25.9591 28.8023 25.8V24.6C28.8023 24.4409 28.7391 24.2883 28.6266 24.1757C28.5141 24.0632 28.3615 24 28.2023 24ZM30.6023 24C30.4432 24 30.2906 24.0632 30.1781 24.1757C30.0656 24.2883 30.0023 24.4409 30.0023 24.6V25.8C30.0023 25.9591 30.0656 26.1117 30.1781 26.2243C30.2906 26.3368 30.4432 26.4 30.6023 26.4C30.7615 26.4 30.9141 26.3368 31.0266 26.2243C31.1391 26.1117 31.2023 25.9591 31.2023 25.8V24.6C31.2023 24.4409 31.1391 24.2883 31.0266 24.1757C30.9141 24.0632 30.7615 24 30.6023 24ZM11.4023 27.6H9.00234C8.84321 27.6 8.6906 27.6632 8.57808 27.7757C8.46556 27.8883 8.40234 28.0409 8.40234 28.2C8.40234 28.3591 8.46556 28.5117 8.57808 28.6243C8.6906 28.7368 8.84321 28.8 9.00234 28.8H11.4023C11.5615 28.8 11.7141 28.7368 11.8266 28.6243C11.9391 28.5117 12.0023 28.3591 12.0023 28.2C12.0023 28.0409 11.9391 27.8883 11.8266 27.7757C11.7141 27.6632 11.5615 27.6 11.4023 27.6ZM16.2023 27.6H13.8023C13.6432 27.6 13.4906 27.6632 13.3781 27.7757C13.2656 27.8883 13.2023 28.0409 13.2023 28.2C13.2023 28.3591 13.2656 28.5117 13.3781 28.6243C13.4906 28.7368 13.6432 28.8 13.8023 28.8H16.2023C16.3615 28.8 16.5141 28.7368 16.6266 28.6243C16.7391 28.5117 16.8023 28.3591 16.8023 28.2C16.8023 28.0409 16.7391 27.8883 16.6266 27.7757C16.5141 27.6632 16.3615 27.6 16.2023 27.6ZM11.4023 30H9.00234C8.84321 30 8.6906 30.0632 8.57808 30.1757C8.46556 30.2883 8.40234 30.4409 8.40234 30.6C8.40234 30.7591 8.46556 30.9117 8.57808 31.0243C8.6906 31.1368 8.84321 31.2 9.00234 31.2H11.4023C11.5615 31.2 11.7141 31.1368 11.8266 31.0243C11.9391 30.9117 12.0023 30.7591 12.0023 30.6C12.0023 30.4409 11.9391 30.2883 11.8266 30.1757C11.7141 30.0632 11.5615 30 11.4023 30ZM16.2023 30H13.8023C13.6432 30 13.4906 30.0632 13.3781 30.1757C13.2656 30.2883 13.2023 30.4409 13.2023 30.6C13.2023 30.7591 13.2656 30.9117 13.3781 31.0243C13.4906 31.1368 13.6432 31.2 13.8023 31.2H16.2023C16.3615 31.2 16.5141 31.1368 16.6266 31.0243C16.7391 30.9117 16.8023 30.7591 16.8023 30.6C16.8023 30.4409 16.7391 30.2883 16.6266 30.1757C16.5141 30.0632 16.3615 30 16.2023 30ZM21.0023 27.6H18.6023C18.4432 27.6 18.2906 27.6632 18.1781 27.7757C18.0656 27.8883 18.0023 28.0409 18.0023 28.2C18.0023 28.3591 18.0656 28.5117 18.1781 28.6243C18.2906 28.7368 18.4432 28.8 18.6023 28.8H21.0023C21.1615 28.8 21.3141 28.7368 21.4266 28.6243C21.5391 28.5117 21.6023 28.3591 21.6023 28.2C21.6023 28.0409 21.5391 27.8883 21.4266 27.7757C21.3141 27.6632 21.1615 27.6 21.0023 27.6Z" fill="url(#paint1_linear_317_4824)"/>
<defs>
<linearGradient id="paint0_linear_317_4824" x1="0.00390625" y1="18.0004" x2="36.0008" y2="18.0004" gradientUnits="userSpaceOnUse">
<stop stop-color="#E52D27"/>
<stop offset="1" stop-color="#B31217"/>
</linearGradient>
<linearGradient id="paint1_linear_317_4824" x1="8.40234" y1="24.6" x2="31.2023" y2="24.6" gradientUnits="userSpaceOnUse">
<stop stop-color="#E52D27"/>
<stop offset="1" stop-color="#B31217"/>
</linearGradient>
</defs>
</svg>
