<svg width="36" height="36" viewBox="0 0 36 36" fill="none" xmlns="http://www.w3.org/2000/svg">
<path d="M16.574 31.5284H19.8142C20.4443 31.5284 21.0654 31.3802 21.6275 31.0957C22.1897 30.8112 22.677 30.3985 23.0501 29.8909L25.3938 26.7024C25.6121 26.4053 25.9251 26.1915 26.2813 26.0963C26.6375 26.0011 27.0154 26.0301 27.3529 26.1786C28.2262 26.5629 28.5805 27.6145 28.1177 28.4489L27.1136 30.2591C25.3891 33.3681 22.1138 35.2969 18.5586 35.2969H5.25" stroke="white" stroke-opacity="0.5" stroke-miterlimit="10" stroke-linecap="round" stroke-linejoin="round"/>
<path d="M5.25 29.1312C5.97394 27.0387 8.07213 25.5361 10.4107 25.5361C12.4106 25.5361 14.1537 26.635 15.0696 28.2618V28.2619H18.77C19.672 28.2619 20.4033 28.9931 20.4033 29.895C20.4033 30.7971 19.672 31.5283 18.77 31.5283H14.3864H17.2686" stroke="white" stroke-opacity="0.5" stroke-miterlimit="10" stroke-linecap="round" stroke-linejoin="round"/>
<path d="M5.25115 26.3829H0.703125V35.2969H5.25115V26.3829Z" stroke="white" stroke-opacity="0.5" stroke-miterlimit="10" stroke-linecap="round" stroke-linejoin="round"/>
<path d="M9.78516 4.39453C11.6226 2.08477 14.4313 0.702915 17.4406 0.702915H30.7492" stroke="white" stroke-opacity="0.5" stroke-miterlimit="10" stroke-linecap="round" stroke-linejoin="round"/>
<path d="M4.54297 7.93457C6.4779 7.93457 8.0465 6.36597 8.0465 4.43104" stroke="white" stroke-opacity="0.5" stroke-miterlimit="10" stroke-linecap="round" stroke-linejoin="round"/>
<path d="M8.0465 15.165C8.0465 13.23 6.4779 11.6615 4.54297 11.6615" stroke="white" stroke-opacity="0.5" stroke-miterlimit="10" stroke-linecap="round" stroke-linejoin="round"/>
<path d="M25.5581 11.6615C23.6232 11.6615 22.0547 13.2301 22.0547 15.165" stroke="white" stroke-opacity="0.5" stroke-miterlimit="10" stroke-linecap="round" stroke-linejoin="round"/>
<path d="M11.6719 15.1875H4.5V4.40796H22.7618" stroke="white" stroke-opacity="0.5" stroke-miterlimit="10" stroke-linecap="round" stroke-linejoin="round"/>
<path d="M25.6045 9.38461V15.1875H18" stroke="white" stroke-opacity="0.5" stroke-miterlimit="10" stroke-linecap="round" stroke-linejoin="round"/>
<path d="M30.6829 7.31806C30.0173 8.17657 29.0846 8.8406 27.9623 9.16868C26.0428 9.72991 24.0613 9.16446 22.7258 7.85995L19.174 8.89833C18.3082 9.15138 17.4012 8.65477 17.1481 7.78894C16.895 6.92325 17.3916 6.01615 18.2574 5.76309L24.4414 3.95515L19.6985 5.34178" stroke="white" stroke-opacity="0.5" stroke-miterlimit="10" stroke-linecap="round" stroke-linejoin="round"/>
<path d="M30.75 9.61719H35.298V0.70318H30.75V9.61719Z" stroke="white" stroke-opacity="0.5" stroke-miterlimit="10" stroke-linecap="round" stroke-linejoin="round"/>
<path d="M10.4533 9.06234C10.0562 9.08299 9.6605 9.12493 9.2679 9.18795C9.18407 9.20273 9.10943 9.24988 9.06007 9.31922C9.01072 9.38856 8.99061 9.47454 9.0041 9.55858C9.01758 9.64262 9.06358 9.71798 9.13215 9.7684C9.20072 9.81882 9.28637 9.84025 9.37061 9.82806C9.74022 9.7687 10.1127 9.72922 10.4866 9.70979C10.5724 9.70537 10.653 9.66703 10.7106 9.6032C10.7682 9.53937 10.7981 9.45528 10.7936 9.36943C10.7845 9.19062 10.6315 9.05273 10.4533 9.06234ZM19.2192 10.856C19.2171 10.8985 19.2233 10.9411 19.2376 10.9812C19.2519 11.0213 19.274 11.0582 19.3025 11.0897C19.3311 11.1213 19.3656 11.147 19.404 11.1652C19.4425 11.1835 19.4841 11.194 19.5267 11.1961C19.9299 11.2164 20.3218 11.2146 20.6934 11.1945C20.7359 11.1922 20.7775 11.1815 20.8159 11.1631C20.8543 11.1448 20.8887 11.119 20.9171 11.0873C20.9455 11.0556 20.9675 11.0186 20.9816 10.9785C20.9957 10.9383 21.0018 10.8958 20.9995 10.8533C20.9899 10.6745 20.8364 10.5378 20.6583 10.5472C20.2923 10.5667 19.9255 10.5672 19.5594 10.5487C19.5168 10.5465 19.4743 10.5527 19.4342 10.567C19.3941 10.5813 19.3572 10.6034 19.3256 10.6319C19.2941 10.6604 19.2684 10.6949 19.2501 10.7334C19.2319 10.7718 19.2214 10.8135 19.2192 10.856ZM15.583 10.8088C16.6331 10.8088 17.4874 9.95448 17.4874 8.90439C17.4874 7.8543 16.6331 7 15.583 7H13.6309C13.5449 7 13.4625 7.03415 13.4017 7.09494C13.3409 7.15573 13.3068 7.23818 13.3068 7.32415V11.7812H12.9016C12.8156 11.7812 12.7331 11.8154 12.6723 11.8762C12.6116 11.937 12.5774 12.0194 12.5774 12.1054C12.5774 12.1914 12.6116 12.2738 12.6723 12.3346C12.7331 12.3954 12.8156 12.4295 12.9016 12.4295H13.3068V13.321C13.3068 13.4069 13.3409 13.4894 13.4017 13.5502C13.4625 13.611 13.5449 13.6451 13.6309 13.6451C13.7169 13.6451 13.7993 13.611 13.8601 13.5502C13.9209 13.4894 13.9551 13.4069 13.9551 13.321V12.4295H15.4137C15.4997 12.4295 15.5822 12.3954 15.6429 12.3346C15.7037 12.2738 15.7379 12.1914 15.7379 12.1054C15.7379 12.0194 15.7037 11.937 15.6429 11.8762C15.5822 11.8154 15.4997 11.7812 15.4137 11.7812H13.9551V10.8088H15.583ZM13.9551 7.6483H15.583C16.2756 7.6483 16.8391 8.2118 16.8391 8.90439C16.8391 9.59698 16.2756 10.1605 15.583 10.1605H13.9551V7.6483Z" fill="white" fill-opacity="0.5"/>
</svg>
